#!OML:ASF E:\VariousWalksJay\Project 1\Capture day 1\Session 1\Actor2.ASF
:FULLY-SPECIFIED
:DEGREES
813
root -6.29459 16.6258 35.7307 1.8976 6.32389 -9.12022
lowerback -10.936 3.4991 4.58276
upperback -2.12535 4.09724 0.508424
thorax 4.17941 2.08324 -1.44523
lowerneck -6.56652 -4.85584 -4.27306
upperneck 6.29991 -6.87858 9.76826
head 3.44191 -3.11129 3.30377
rclavicle -7.7526e-015 7.95139e-016
rhumerus 3.28311 14.8274 -76.4601
rradius 104.422
rwrist -14.0911
rhand -16.2474 12.7592
rfingers 7.12502
rthumb 9.9615 -16.9851
lclavicle -7.7526e-015 7.95139e-016
lhumerus -89.027 -68.0608 106.442
lradius 63.4702
lwrist 22.7539
lhand -7.1893 -20.3568
lfingers 7.12502
lthumb 18.6887 8.76547
rfemur 9.16849 -15.09 34.8766
rtibia 25.5874
rfoot -18.8887 -11.2922
rtoes -16.9276
lfemur -31.1404 -7.22574 -10.1929
ltibia 30.5103
lfoot -11.7643 -13.2248
ltoes -10.3698
814
root -6.27991 16.6537 35.8542 2.00207 6.00228 -9.00508
lowerback -11.1854 3.54579 4.63439
upperback -2.22548 4.14151 0.49397
thorax 4.21947 2.10449 -1.47113
lowerneck -6.60925 -4.85209 -4.24059
upperneck 6.71812 -6.90953 9.76122
head 3.57539 -3.11478 3.29065
rclavicle 4.49253e-014 1.03368e-014
rhumerus 3.08497 15.0858 -76.4036
rradius 104.42
rwrist -14.1779
rhand -16.2652 12.7435
rfingers 7.12502
rthumb 9.94432 -17.0016
lclavicle 4.49253e-014 1.03368e-014
lhumerus -88.3731 -67.8104 106.103
lradius 64.1426
lwrist 22.7967
lhand -7.12907 -20.3358
lfingers 7.12502
lthumb 18.7467 8.78081
rfemur 9.39998 -14.8315 34.504
rtibia 25.7791
rfoot -18.0062 -10.9986
rtoes -17.132
lfemur -30.574 -7.10478 -10.3601
ltibia 30.3578
lfoot -11.4421 -13.4357
ltoes -9.85165
815
root -6.26479 16.6808 35.9776 2.11992 5.63736 -8.86537
lowerback -11.4219 3.58549 4.66463
upperback -2.33582 4.1798 0.479245
thorax 4.23965 2.12206 -1.48735
lowerneck -6.64205 -4.8498 -4.20989
upperneck 7.11858 -6.94245 9.76657
head 3.70273 -3.11929 3.28193
rclavicle 1.20265e-014 -4.69132e-014
rhumerus 2.89177 15.3429 -76.393
rradius 104.428
rwrist -14.2655
rhand -16.2797 12.7572
rfingers 7.12502
rthumb 9.93029 -16.9886
lclavicle 1.20265e-014 -4.69132e-014
lhumerus -87.4952 -67.4745 105.528
lradius 64.8297
lwrist 22.8099
lhand -7.05264 -20.311
lfingers 7.12502
lthumb 18.8202 8.79859
rfemur 9.58085 -14.5155 34.1127
rtibia 26.0367
rfoot -17.1307 -10.7315
rtoes -17.2336
lfemur -30.01 -7.02882 -10.5378
ltibia 30.2047
lfoot -11.1857 -13.5877
ltoes -9.30532
816
root -6.24959 16.7063 36.0992 2.23379 5.24313 -8.70957
lowerback -11.6285 3.61268 4.67896
upperback -2.44439 4.20476 0.469498
thorax 4.24271 2.13259 -1.49329
lowerneck -6.64037 -4.84559 -4.1826
upperneck 7.45677 -6.96901 9.7795
head 3.80568 -3.12277 3.27777
rclavicle -7.35503e-015 1.59028e-015
rhumerus 2.69885 15.5948 -76.4268
rradius 104.465
rwrist -14.3381
rhand -16.293 12.7977
rfingers 7.12502
rthumb 9.91753 -16.9487
lclavicle -7.35503e-015 1.59028e-015
lhumerus -86.3387 -67.0392 104.679
lradius 65.5053
lwrist 22.8007
lhand -6.9719 -20.2843
lfingers 7.12502
lthumb 18.8978 8.81773
rfemur 9.711 -14.1398 33.7167
rtibia 26.3816
rfoot -16.2911 -10.4922
rtoes -17.2117
lfemur -29.4538 -6.99211 -10.7195
ltibia 30.0695
lfoot -10.9864 -13.6618
ltoes -8.72614
817
root -6.23426 16.7294 36.2177 2.33734 4.83553 -8.53761
lowerback -11.7906 3.62517 4.67971
upperback -2.54061 4.21385 0.465296
thorax 4.23173 2.13512 -1.49062
lowerneck -6.61678 -4.84447 -4.15077
upperneck 7.71172 -6.99297 9.7825
head 3.87928 -3.12791 3.27104
rclavicle -3.44891e-014 1.11319e-014
rhumerus 2.51539 15.8364 -76.4842
rradius 104.552
rwrist -14.3984
rhand -16.3081 12.8499
rfingers 7.12502
rthumb 9.90291 -16.8972
lclavicle -3.44891e-014 1.11319e-014
lhumerus -84.8535 -66.4995 103.532
lradius 66.141
lwrist 22.7756
lhand -6.88767 -20.2609
lfingers 7.12502
lthumb 18.9789 8.83321
rfemur 9.78718 -13.7207 33.3136
rtibia 26.8262
rfoot -15.4861 -10.2821
rtoes -17.109
lfemur -28.9208 -6.98346 -10.9123
ltibia 29.9695
lfoot -10.8309 -13.658
ltoes -8.13103
818
root -6.21886 16.7497 36.3323 2.42339 4.42335 -8.34395
lowerback -11.9024 3.62171 4.65916
upperback -2.61794 4.20665 0.467013
thorax 4.20994 2.12952 -1.47492
lowerneck -6.57877 -4.84442 -4.12751
upperneck 7.88781 -7.01111 9.783
head 3.92651 -3.13289 3.26611
rclavicle 1.44119e-014 1.03368e-014
rhumerus 2.33076 16.0665 -76.56
rradius 104.694
rwrist -14.4418
rhand -16.3428 12.8743
rfingers 7.12502
rthumb 9.86941 -16.8743
lclavicle 1.44119e-014 1.03368e-014
lhumerus -83.057 -65.8452 102.126
lradius 66.7153
lwrist 22.7282
lhand -6.81186 -20.2416
lfingers 7.12502
lthumb 19.0518 8.84529
rfemur 9.81208 -13.2691 32.8941
rtibia 27.3801
rfoot -14.7231 -10.0889
rtoes -16.9202
lfemur -28.4164 -6.9874 -11.1295
ltibia 29.9147
lfoot -10.7002 -13.5847
ltoes -7.50377
819
root -6.20309 16.7666 36.4431 2.48451 4.01622 -8.1591
lowerback -11.9741 3.60259 4.6522
upperback -2.66695 4.17799 0.483241
thorax 4.19427 2.11396 -1.45651
lowerneck -6.53429 -4.84334 -4.10796
upperneck 7.99471 -7.02072 9.77248
head 3.9509 -3.13623 3.25951
rclavicle 3.68746e-014 -2.3059e-014
rhumerus 2.14126 16.2859 -76.6572
rradius 104.883
rwrist -14.4842
rhand -16.3854 12.8776
rfingers 7.12502
rthumb 9.82835 -16.873
lclavicle 3.68746e-014 -2.3059e-014
lhumerus -80.961 -65.0574 100.489
lradius 67.2107
lwrist 22.6525
lhand -6.75228 -20.2329
lfingers 7.12502
lthumb 19.1091 8.84833
rfemur 9.79013 -12.8195 32.4773
rtibia 28.0511
rfoot -13.9938 -9.88678
rtoes -16.6922
lfemur -27.9428 -6.9863 -11.346
ltibia 29.9098
lfoot -10.592 -13.4575
ltoes -6.84004
